<?xml version="1.0" encoding="UTF-8"?>
<!-- Generator: Blender, SVG Export for Grease Pencil - v1.0 -->
<!DOCTYPE svg PUBLIC "-//W3C//DTD SVG 1.1//EN" "http://www.w3.org/Graphics/SVG/1.1/DTD/svg11.dtd">
<svg version="1.0" x="0px" y="0px" xmlns="http://www.w3.org/2000/svg" width="556px" height="471px" viewBox="0 0 556 471">
	<g id="blender_frame_1">
		<g id="blender_object_Stroke">
			<!--Layer: Lines-->
			<g id="Lines">
				<polygon stroke="#000000" stroke-opacity="1" fill="none" stroke-linecap="round" stroke-width="7.21795654" points="461.551880,235.775574 461.068481,221.009155 459.620300,206.305939 457.213562,191.728943 453.858704,177.340546 449.569946,163.202362 444.365662,149.375000 438.268127,135.917572 431.303589,122.887756 423.501770,110.341370 414.895996,98.332092 405.523254,86.911377 395.423645,76.128113 384.640381,66.028503 373.219604,56.655762 361.210327,48.050049 348.663879,40.248108 335.634033,33.283569 322.176636,27.186096 308.349243,21.981812 294.211060,17.693054 279.822632,14.338135 265.245605,11.931458 250.542419,10.483398 235.776001,10.000000 221.009521,10.483276 206.306274,11.931458 191.729248,14.338135 177.340881,17.693054 163.202637,21.981812 149.375244,27.186096 135.917847,33.283508 122.887939,40.248108 110.341553,48.049988 98.332214,56.655762 86.911499,66.028503 76.128235,76.128113 66.028503,86.911377 56.655762,98.332123 48.050049,110.341461 40.248169,122.887878 33.283569,135.917725 27.186096,149.375153 21.981812,163.202606 17.693054,177.340790 14.338135,191.729218 11.931519,206.306274 10.483337,221.009460 10.000000,235.775909 10.483398,250.542358 11.931580,265.245605 14.338257,279.822632 17.693237,294.210999 21.982056,308.349182 27.186340,322.176636 33.283813,335.634033 40.248474,348.663849 48.050354,361.210266 56.656189,373.219543 66.028992,384.640198 76.128662,395.423523 86.911987,405.523132 98.332764,414.895813 110.341980,423.501526 122.888428,431.303284 135.918274,438.267822 149.375671,444.365234 163.203003,449.569519 177.341248,453.858215 191.729614,457.213074 206.306580,459.619690 221.009827,461.067810 235.776184,461.551208 250.542664,461.067810 265.245850,459.619629 279.822815,457.212952 294.211182,453.858032 308.349426,449.569275 322.176697,444.364990 335.634155,438.267517 348.663879,431.302917 361.210327,423.501099 373.219604,414.895386 384.640381,405.522705 395.423645,395.423096 405.523254,384.639832 414.895935,373.219177 423.501648,361.209900 431.303528,348.663513 438.268127,335.633728 444.365662,322.176361 449.569763,308.348999 453.858704,294.210846 457.213562,279.822510 459.620239,265.245514 461.068359,250.542358" />
				<polyline stroke="#000000" stroke-opacity="1" fill="none" stroke-linecap="round" stroke-width="7.21789551" points="233.753601,37.863464 233.753601,66.891785 233.753601,95.920105 233.753601,124.948334 233.753601,153.976685 233.753601,183.004974 233.753601,212.033264 233.753601,241.061554 259.249512,241.061554 284.745239,241.061554 310.240967,241.061554 335.736816,241.061554 361.232666,241.061554 386.728394,241.061554 412.224121,241.061554" />
			</g>
		</g>
	</g>
</svg>
